<svg xmlns="http://www.w3.org/2000/svg" version="1.1" xmlns:xlink="http://www.w3.org/1999/xlink" xmlns:svgjs="http://svgjs.dev/svgjs" width="1500" height="1500" viewBox="0 0 1500 1500"><rect width="1500" height="1500" fill="#1f2d5a"></rect><g transform="matrix(0.6666666666666666,0,0,0.6666666666666666,249.39393939393938,555.3983094102782)"><svg viewBox="0 0 396 154" data-background-color="#1f2d5a" preserveAspectRatio="xMidYMid meet" height="583" width="1500" xmlns="http://www.w3.org/2000/svg" xmlns:xlink="http://www.w3.org/1999/xlink"><g id="tight-bounds" transform="matrix(1,0,0,1,0.2400000000000091,0.10633023366335692)"><svg viewBox="0 0 395.52 153.7873395326733" height="153.7873395326733" width="395.52"><g><svg viewBox="0 0 395.52 153.7873395326733" height="153.7873395326733" width="395.52"><g transform="matrix(1,0,0,1,0,95.04674547326734)"><svg viewBox="0 0 395.52 58.740594059405936" height="58.740594059405936" width="395.52"><g id="textblocktransform"><svg viewBox="0 0 395.52 58.740594059405936" height="58.740594059405936" width="395.52" id="textblock"><g><svg viewBox="0 0 395.52 58.740594059405936" height="58.740594059405936" width="395.52"><g transform="matrix(1,0,0,1,0,0)"><svg width="395.52" viewBox="1.49 -36.65 251.48999999999998 37.36" height="58.740594059405936" data-palette-color="#fbfbfb"><path d="M2.71-25.95L2.71-36.01 3.44-36.65 8.11-36.01 28.15-36.01 28.66-33.79 25.71-30.25 7.79-2.86 24.29-2.86 27.39-10.06 28.39-10.06 28.39 0 27.66 0.66 23 0 2 0 1.49-2.2 4.44-5.76 22.09-33.15 6.74-33.15 3.71-25.95 2.71-25.95ZM54.95-13.06L54.25-12.35 38.45-12.35Q38.47-9.62 39.23-7.59 39.99-5.57 41.28-4.42 42.58-3.27 44.13-2.73 45.68-2.2 47.51-2.2L47.51-2.2Q50.05-2.2 52.95-3.91L52.95-3.91 53.71-2.44Q51.66-0.63 49.61-0.01 47.56 0.61 44.94 0.61L44.94 0.61Q42.67 0.61 40.57-0.35 38.47-1.32 36.89-3.02 35.3-4.71 34.35-7.18 33.4-9.64 33.4-12.5L33.4-12.5Q33.4-15.21 34.09-17.44 34.79-19.68 35.94-21.17 37.08-22.66 38.61-23.68 40.13-24.71 41.73-25.16 43.33-25.61 44.99-25.61L44.99-25.61Q47.07-25.61 48.84-24.84 50.61-24.07 51.99-22.57 53.37-21.07 54.16-18.63 54.95-16.19 54.95-13.06L54.95-13.06ZM45.09-23.24L45.09-23.24Q42.28-23.24 40.61-21.02 38.94-18.8 38.55-14.94L38.55-14.94 50.19-14.94Q50.19-18.85 48.87-21.04 47.56-23.24 45.09-23.24ZM67.7-2.76L71.94-1 71.94 0 58.71 0 58.71-1 63.2-2.76 63.2-21.09 58.71-22.85 58.71-23.85 67.21-25.61 67.7-25.1 67.7-22.14Q69.43-23.75 71.75-24.68 74.07-25.61 76.31-25.61L76.31-25.61Q79.58-25.61 81.75-23.61 83.91-21.61 83.91-17.65L83.91-17.65 83.91-2.76 88.4-1 88.4 0 75.14 0 75.14-1 79.41-2.76 79.41-16.16Q79.41-19.68 78.16-21.04 76.9-22.41 73.85-22.41L73.85-22.41Q70.21-22.41 67.7-20.24L67.7-20.24 67.7-2.76ZM92.16-8.25L93.4-8.25 96.01-2.71Q96.33-2.51 96.79-2.36 97.26-2.2 97.8-2.08 98.33-1.95 98.89-1.88 99.46-1.81 99.99-1.81L99.99-1.81Q101.24-1.81 102.25-2.06 103.26-2.32 104-2.8 104.73-3.27 105.12-3.97 105.51-4.66 105.51-5.54L105.51-5.54Q105.51-6.69 104.57-7.73 103.63-8.76 101.92-9.74L101.92-9.74 99.31-11.21Q97.92-11.94 96.71-12.72 95.5-13.5 94.6-14.43 93.69-15.36 93.17-16.48 92.64-17.6 92.64-18.99L92.64-18.99Q92.64-20.68 93.3-21.92 93.96-23.17 95.18-23.99 96.4-24.8 98.12-25.21 99.85-25.61 101.95-25.61L101.95-25.61Q105.17-25.61 108.39-24.56L108.39-24.56 108.29-17.5 107.29-17.5 104.7-23.24Q103.78-23.36 103.11-23.44 102.43-23.51 101.99-23.51L101.99-23.51Q100.68-23.51 99.71-23.21 98.75-22.9 98.12-22.4 97.5-21.9 97.2-21.26 96.89-20.63 96.89-19.95L96.89-19.95Q96.89-19.14 97.2-18.49 97.5-17.85 98.1-17.26 98.7-16.67 99.6-16.1 100.51-15.53 101.7-14.89L101.7-14.89Q103.41-13.96 104.52-13.38 105.63-12.79 106.12-12.45L106.12-12.45Q109.95-9.89 109.95-6.54L109.95-6.54Q109.95-4.74 109.09-3.38 108.22-2.03 106.82-1.11 105.41-0.2 103.65 0.26 101.9 0.71 100.11 0.71L100.11 0.71Q99.19 0.71 98.11 0.59 97.04 0.46 95.96 0.24 94.89 0.02 93.9-0.28 92.91-0.59 92.16-0.95L92.16-0.95 92.16-8.25ZM130.19-23.1L122.18-21.61 122.18-8.01Q122.18-6.35 122.44-5.22 122.7-4.1 123.2-3.55 123.7-3 124.26-2.8 124.82-2.59 125.6-2.59L125.6-2.59Q127.07-2.59 128.05-2.84 129.04-3.1 130.19-3.81L130.19-3.81 130.95-2.25Q127.5 0.61 123.4 0.61L123.4 0.61Q121.01 0.61 119.35-1.28 117.69-3.17 117.69-6.59L117.69-6.59 117.69-21.61 113.15-22.85 113.15-23.85 117.89-24.85 119.69-31.59 122.18-31.59 122.18-24.85 129.34-24.85 130.19-24.56 130.19-23.1ZM143.54-2.76L149.3-1 149.3 0 134.56 0 134.56-1 139.05-2.76 139.05-21.09 134.56-22.85 134.56-23.85 143.05-25.61 143.54-25.1 143.54-22.09Q147.25-25.61 153.31-25.61L153.31-25.61 153.31-20.19 152.31-19.85 148.74-21.8Q147.64-21.8 146.23-21.33 144.81-20.85 143.54-19.95L143.54-19.95 143.54-2.76ZM177.84-13.06L177.13-12.35 161.34-12.35Q161.36-9.62 162.12-7.59 162.88-5.57 164.17-4.42 165.46-3.27 167.01-2.73 168.56-2.2 170.4-2.2L170.4-2.2Q172.93-2.2 175.84-3.91L175.84-3.91 176.6-2.44Q174.55-0.63 172.49-0.01 170.44 0.61 167.83 0.61L167.83 0.61Q165.56 0.61 163.46-0.35 161.36-1.32 159.78-3.02 158.19-4.71 157.24-7.18 156.28-9.64 156.28-12.5L156.28-12.5Q156.28-15.21 156.98-17.44 157.68-19.68 158.82-21.17 159.97-22.66 161.5-23.68 163.02-24.71 164.62-25.16 166.22-25.61 167.88-25.61L167.88-25.61Q169.96-25.61 171.73-24.84 173.5-24.07 174.88-22.57 176.25-21.07 177.05-18.63 177.84-16.19 177.84-13.06L177.84-13.06ZM167.98-23.24L167.98-23.24Q165.17-23.24 163.5-21.02 161.83-18.8 161.44-14.94L161.44-14.94 173.08-14.94Q173.08-18.85 171.76-21.04 170.44-23.24 167.98-23.24ZM201.08-3.39L205.6-2.15 205.6-1.25 200.3 0.39Q198.74 0.73 197.66 0.04 196.59-0.66 196.59-2.34L196.59-2.34Q193.42 0.61 189.14 0.61L189.14 0.61Q185.6 0.61 183.84-1.22 182.09-3.05 182.09-5.81L182.09-5.81Q182.09-7.89 183.01-9.48 183.94-11.08 185.38-12.04 186.82-12.99 188.83-13.62 190.83-14.26 192.68-14.5 194.54-14.75 196.59-14.79L196.59-14.79 196.59-17.14Q196.59-20.56 195.51-21.9 194.44-23.24 191.95-23.24L191.95-23.24Q190.07-23.24 187.53-22.66L187.53-22.66 184.94-16.99 183.75-16.99 183.75-23.95Q185.94-24.73 188.39-25.17 190.83-25.61 192.68-25.61L192.68-25.61Q196.71-25.61 198.9-23.99 201.08-22.36 201.08-18.65L201.08-18.65 201.08-3.39ZM191.19-2.25L191.19-2.25Q192.59-2.25 194.05-2.92 195.51-3.59 196.59-4.76L196.59-4.76 196.59-12.79Q191.71-12.57 189.14-10.8 186.58-9.03 186.58-6.3L186.58-6.3Q186.58-4.2 187.92-3.22 189.26-2.25 191.19-2.25ZM217.07-2.76L221.32-1 221.32 0 208.09 0 208.09-1 212.58-2.76 212.58-21.09 208.09-22.85 208.09-23.85 216.58-25.61 217.07-25.1 217.07-22.19Q218.75-23.8 220.96-24.71 223.17-25.61 225.42-25.61L225.42-25.61Q227.62-25.61 229.4-24.57 231.18-23.54 232.08-21.46L232.08-21.46Q233.77-23.39 236.2-24.5 238.63-25.61 241.12-25.61L241.12-25.61Q242.58-25.61 243.88-25.15 245.17-24.68 246.21-23.74 247.25-22.8 247.86-21.24 248.47-19.68 248.47-17.65L248.47-17.65 248.47-2.76 252.98-1 252.98 0 239.73 0 239.73-1 243.97-2.76 243.97-16.16Q243.97-19.65 242.77-21.03 241.56-22.41 238.68-22.41L238.68-22.41Q235.04-22.41 232.52-20.04L232.52-20.04Q232.77-18.82 232.77-17.65L232.77-17.65 232.77-2.76 237.02-1 237.02 0 224.03 0 224.03-1 228.28-2.76 228.28-16.16Q228.28-19.65 227.07-21.03 225.86-22.41 222.98-22.41L222.98-22.41Q219.51-22.41 217.07-20.24L217.07-20.24 217.07-2.76Z" opacity="1" transform="matrix(1,0,0,1,0,0)" fill="#fbfbfb" class="wordmark-text-0" data-fill-palette-color="primary" id="text-0"></path></svg></g></svg></g></svg></g></svg></g><g transform="matrix(1,0,0,1,157.17024950495048,0)"><svg viewBox="0 0 81.17950099009903 81.17950099009902" height="81.17950099009902" width="81.17950099009903"><g><svg></svg></g><g id="icon-0"><svg viewBox="0 0 81.17950099009903 81.17950099009902" height="81.17950099009902" width="81.17950099009903"><g><path transform="scale(0.8118,0.8118)" d="M30 100c-16.569 0-30-13.431-30-30v-40c0-16.569 13.431-30 30-30h40c16.569 0 30 13.431 30 30v40c0 16.569-13.431 30-30 30z" fill="#2f76db" fill-rule="nonzero" stroke="none" stroke-width="1" stroke-linecap="butt" stroke-linejoin="miter" stroke-miterlimit="10" stroke-dasharray="" stroke-dashoffset="0" font-family="none" font-weight="none" font-size="none" text-anchor="none" style="mix-blend-mode: normal" data-fill-palette-color="accent"></path></g><g transform="matrix(1,0,0,1,16.23590019801981,33.172108891247525)"><svg viewBox="0 0 48.70770059405941 14.835283207603965" height="14.835283207603965" width="48.70770059405941"><g><svg xmlns="http://www.w3.org/2000/svg" xmlns:xlink="http://www.w3.org/1999/xlink" version="1.1" x="0" y="0" viewBox="5 36.294 90 27.412000000000006" enable-background="new 0 0 100 100" xml:space="preserve" height="14.835283207603965" width="48.70770059405941" class="icon-cg-0" data-fill-palette-color="quaternary" id="cg-0"><path d="M81.189 49.894c-2.743 0-5.297 0.811-7.444 2.19-3.182-3.521-7.766-5.75-12.887-5.75-2.24 0-4.377 0.441-6.344 1.213-4.987-6.81-13.016-11.253-22.106-11.253C17.271 36.294 5 48.568 5 63.706h90C95 56.078 88.818 49.894 81.189 49.894z" fill="#1f2d5a" data-fill-palette-color="quaternary"></path></svg></g></svg></g></svg></g></svg></g><g></g></svg></g><defs></defs></svg><rect width="395.52" height="153.7873395326733" fill="none" stroke="none" visibility="hidden"></rect></g></svg></g></svg>